<svg width="48" height="48" viewBox="0 0 48 48" fill="none" xmlns="http://www.w3.org/2000/svg">
<rect width="48" height="48" rx="10" fill="#363634"/>
<path d="M12.3634 15.1265L15.4193 18.1828L17.4445 17.4773L18.1828 15.4193L15.1265 12.3634C15.2478 12.3147 15.3706 12.2706 15.4947 12.2313C16.1336 12.0273 16.8138 11.9596 17.481 12.0229C17.6005 12.0341 17.7199 12.05 17.8385 12.0702C18.6039 12.2003 19.3318 12.5095 19.9588 12.9668C20.1612 13.1158 20.3547 13.2816 20.5379 13.4648C22.0229 14.9494 22.3785 17.1354 21.606 18.9568L29.0431 26.3939C29.06 26.4108 29.6232 26.1893 29.6949 26.1701C29.9384 26.105 30.1868 26.0584 30.4372 26.0305C30.9493 25.9735 31.47 25.9946 31.9756 26.0938C32.9434 26.2836 33.8379 26.7651 34.5351 27.462C35.9981 28.9246 36.3654 31.0683 35.6364 32.8734L32.5805 29.817L30.5225 30.5553L29.817 32.5806L32.8734 35.6365C32.752 35.6852 32.6293 35.7292 32.5052 35.7686C32.0191 35.9226 31.5083 36 30.9985 36C29.9488 36 28.892 35.6595 28.041 35.0331C27.8386 34.8841 27.6452 34.7182 27.462 34.5351C25.9769 33.0505 25.6213 30.8645 26.3938 29.0431L18.9567 21.606C18.3332 21.8702 17.667 22.0028 17.0008 22.0028C15.9426 22.0028 14.8962 21.6633 14.0438 21.0358C13.8414 20.8869 13.6479 20.721 13.4647 20.5378C12.0017 19.0753 11.6344 16.9315 12.3634 15.1265Z" fill="#FADE56"/>
</svg>
