<svg width="156" height="52" viewBox="0 0 156 52" fill="none" xmlns="http://www.w3.org/2000/svg">
<rect width="156" height="52" fill="#EAE60E"/>
<path d="M92.5172 18.9478H91.487V20.315H90.8574V17.0527H91.487V18.3818H92.5172V17.0527H93.1404V20.315H92.5172V18.9478Z" fill="#363634"/>
<path d="M95.6716 19.5901H94.7113L94.4887 20.315H93.8655L94.902 17.0527H95.5252L96.5554 20.315H95.9005L95.6716 19.5901ZM94.8576 19.0813H95.5443L95.22 17.9875H95.1819L94.8576 19.0813Z" fill="#363634"/>
<path d="M99.7669 20.9446H99.2009V20.315H97.1787V17.0527H97.821V19.749H98.7303V17.0527H99.3726V19.749H99.7669V20.9446Z" fill="#363634"/>
<path d="M102.044 18.5853L102.082 18.1656H102.056L101.866 18.6044L100.969 20.3214H100.39V17.0527H101.013V18.7443L100.969 19.1831H100.994L101.191 18.7316L102.094 17.0527H102.667V20.315H102.044V18.5853Z" fill="#363634"/>
<path d="M103.602 18.7888C103.602 18.5217 103.627 18.2801 103.678 18.0575C103.729 17.8413 103.805 17.6632 103.907 17.5106C104.009 17.3643 104.142 17.2562 104.295 17.1736C104.447 17.0909 104.632 17.0527 104.842 17.0527C105.071 17.0527 105.261 17.0973 105.414 17.1799C105.573 17.269 105.7 17.3834 105.802 17.5424C105.904 17.695 105.974 17.8731 106.018 18.0893C106.063 18.2991 106.082 18.5344 106.082 18.7888C106.082 19.3357 105.986 19.7618 105.776 20.0607C105.573 20.3786 105.261 20.5249 104.842 20.5249C104.653 20.5384 104.464 20.5006 104.295 20.4155C104.126 20.3304 103.983 20.2012 103.881 20.0416C103.775 19.8724 103.702 19.6847 103.665 19.4883C103.621 19.2785 103.602 19.0432 103.602 18.7888ZM104.276 18.7888C104.276 18.9541 104.288 19.1068 104.301 19.2403C104.314 19.3802 104.339 19.5074 104.377 19.6091C104.422 19.7109 104.473 19.7936 104.549 19.8508C104.625 19.9144 104.721 19.9462 104.842 19.9462C104.956 19.9462 105.045 19.9207 105.115 19.8762C105.191 19.8254 105.242 19.7554 105.293 19.66C105.338 19.5646 105.363 19.4502 105.382 19.3039C105.429 18.8624 105.408 18.4161 105.319 17.9812C105.286 17.8823 105.226 17.7944 105.147 17.7268C105.059 17.6616 104.951 17.6301 104.842 17.6378C104.625 17.6378 104.473 17.7332 104.396 17.9239C104.32 18.1147 104.276 18.4073 104.276 18.7888Z" fill="#363634"/>
<path d="M108.466 18.9478H107.436V20.315H106.813V17.0527H107.436V18.3818H108.466V17.0527H109.09V20.315H108.466V18.9478Z" fill="#363634"/>
<path d="M111.62 19.5901H110.667L110.444 20.315H109.814L110.851 17.0527H111.481L112.511 20.315H111.849L111.62 19.5901ZM110.813 19.0813H111.5L111.169 17.9875H111.131L110.813 19.0813Z" fill="#363634"/>
<path d="M114.972 17.6314H114.361C114.331 18.1301 114.293 18.6283 114.247 19.1258C114.221 19.323 114.19 19.501 114.151 19.6473C114.113 19.7999 114.062 19.9207 113.999 20.0288C113.903 20.1751 113.808 20.2832 113.694 20.3405C113.59 20.3917 113.477 20.4195 113.361 20.4217C113.246 20.4239 113.131 20.4005 113.026 20.3532L113.096 19.7936C113.114 19.8 113.134 19.8043 113.153 19.8063H113.217C113.261 19.8063 113.312 19.7999 113.363 19.7745C113.414 19.749 113.458 19.7045 113.496 19.6473C113.541 19.5774 113.579 19.4692 113.611 19.3293C113.643 19.1958 113.668 19.0177 113.687 18.8079C113.706 18.598 113.725 18.3437 113.738 18.0575L113.764 17.0527H115.614V20.385H114.972V17.6314Z" fill="#363634"/>
<path d="M116.549 17.0527H117.191V18.2419C117.254 18.2312 117.318 18.2248 117.382 18.2228L117.509 18.2101C117.701 18.198 117.894 18.213 118.081 18.2546C118.228 18.2864 118.355 18.3437 118.463 18.42C118.577 18.5026 118.666 18.6108 118.73 18.7507C118.794 18.8842 118.825 19.0622 118.825 19.2721C118.825 19.6537 118.711 19.9398 118.476 20.1306C118.247 20.3214 117.91 20.4231 117.477 20.4231H117.299C117.047 20.4179 116.796 20.3903 116.549 20.3405V17.0527ZM117.509 19.8444C117.598 19.8444 117.681 19.8317 117.763 19.8126C117.837 19.7969 117.906 19.7666 117.967 19.7236C118.031 19.6855 118.069 19.6282 118.1 19.5583C118.139 19.4883 118.151 19.3993 118.151 19.3039C118.151 19.1958 118.132 19.1068 118.1 19.0368C118.068 18.9727 118.02 18.918 117.961 18.8778C117.897 18.8372 117.825 18.8111 117.751 18.8015C117.645 18.7861 117.539 18.7819 117.433 18.7888L117.337 18.8015C117.288 18.8038 117.239 18.8102 117.191 18.8206V19.8126C117.296 19.8317 117.402 19.8423 117.509 19.8444Z" fill="#363634"/>
<path d="M121.21 18.9478H120.173V20.315H119.55V17.0527H120.173V18.3818H121.21V17.0527H121.833V20.315H121.21V18.9478Z" fill="#363634"/>
<path d="M124.364 19.5901H123.404L123.181 20.315H122.558L123.595 17.0527H124.218L125.248 20.315H124.593L124.364 19.5901ZM123.55 19.0813H124.237L123.913 17.9875H123.875L123.55 19.0813Z" fill="#363634"/>
<path d="M128.256 20.4227H127.62V19.1826H127.309L126.609 20.4227H125.872L126.686 19.0681C126.622 19.0427 126.546 19.0045 126.476 18.9537C126.412 18.9028 126.348 18.8392 126.285 18.7629C126.228 18.6791 126.185 18.5868 126.158 18.4895C126.12 18.3702 126.1 18.2458 126.101 18.1206C126.101 17.9108 126.151 17.7327 126.247 17.5864C126.331 17.459 126.439 17.3495 126.566 17.2643C126.692 17.1792 126.835 17.1201 126.984 17.0904C127.201 17.0523 127.421 17.0416 127.639 17.0586C127.847 17.0685 128.053 17.0941 128.256 17.1349V20.4227ZM127.62 17.6564C127.541 17.6405 127.46 17.632 127.379 17.631C127.309 17.631 127.232 17.6373 127.162 17.6564C127.092 17.6723 127.027 17.705 126.972 17.7518C126.915 17.7952 126.868 17.8492 126.832 17.9108C126.777 18.0116 126.758 18.128 126.777 18.2412C126.797 18.3543 126.854 18.4575 126.94 18.534C127.003 18.5848 127.067 18.623 127.162 18.6484C127.251 18.6739 127.341 18.6866 127.43 18.6866H127.62V17.6564Z" fill="#363634"/>
<path d="M92.7273 25.968H93.2424V26.9219C93.1406 26.9982 93.0135 27.0491 92.8608 27.0936C92.5138 27.1896 92.1458 27.1785 91.8052 27.0618C91.6208 26.9982 91.4618 26.9028 91.3219 26.7629C91.182 26.623 91.0676 26.445 90.9849 26.2224C90.8951 25.965 90.852 25.6936 90.8577 25.4211C90.8577 25.0904 90.9085 24.817 91.0039 24.5944C91.0751 24.3996 91.1902 24.2237 91.3401 24.0804C91.4901 23.9371 91.6709 23.8301 91.8688 23.7677C92.1991 23.6684 92.5494 23.6553 92.8863 23.7296C93.0071 23.7614 93.1152 23.7931 93.1979 23.844V24.8361H92.6891V24.2892C92.5874 24.2765 92.492 24.2637 92.3839 24.2637C92.2631 24.2637 92.1549 24.2892 92.0468 24.3337C91.9451 24.3782 91.8561 24.4545 91.7734 24.5499C91.6971 24.6453 91.6399 24.7598 91.5954 24.906C91.5508 25.0523 91.5318 25.224 91.5318 25.4147C91.5318 25.5928 91.5508 25.7518 91.5954 25.8917C91.6335 26.0316 91.6908 26.1524 91.7671 26.2542C91.8443 26.3573 91.9453 26.4401 92.0617 26.4955C92.178 26.5509 92.306 26.5772 92.4347 26.5721C92.5365 26.5721 92.6319 26.5658 92.7337 26.5467L92.7273 25.968Z" fill="#363634"/>
<path d="M95.7222 25.224L95.7603 24.7979H95.7413L95.5505 25.2367L94.6475 26.9473H94.0752V23.6851H94.692V25.3766L94.6475 25.8154H94.6793L94.8701 25.3639L95.7731 23.6851H96.3454V26.9473H95.7222V25.224Z" fill="#363634"/>
<path d="M99.0483 25.9679H99.5571V26.9218C99.4617 26.9981 99.3344 27.049 99.1818 27.0935C98.8348 27.1895 98.4669 27.1784 98.1262 27.0617C97.9355 26.9981 97.7765 26.9027 97.6366 26.7628C97.4967 26.6229 97.3822 26.4449 97.3059 26.2223C97.2232 25.9997 97.1787 25.7326 97.1787 25.421C97.1787 25.0903 97.2232 24.8169 97.3186 24.5943C97.414 24.3781 97.5348 24.2 97.6874 24.0601C97.8337 23.933 98.0054 23.8312 98.1834 23.774C98.5137 23.6741 98.8641 23.661 99.2009 23.7358C99.3281 23.7613 99.4298 23.7994 99.5189 23.8439V24.836H99.0038V24.2891C98.9051 24.2722 98.805 24.2637 98.7049 24.2636C98.584 24.2636 98.4696 24.2891 98.3679 24.3336C98.2661 24.3781 98.1771 24.4544 98.0944 24.5498C98.0122 24.6556 97.9516 24.7767 97.9163 24.9059C97.8718 25.0522 97.8527 25.2239 97.8527 25.4147C97.8527 25.5927 97.8718 25.7517 97.91 25.8916C97.9481 26.0315 98.0054 26.1523 98.088 26.2541C98.165 26.3559 98.2652 26.4379 98.3802 26.4932C98.4953 26.5485 98.6218 26.5756 98.7494 26.572C98.8512 26.572 98.9529 26.5657 99.0483 26.5466V25.9679Z" fill="#363634"/>
<path d="M100.613 26.4322H101.153V24.1938H100.708V24.7661H100.18V23.6851H102.775V24.7661H102.253V24.1938H101.808V26.4322H102.336V26.941H100.619L100.613 26.4322Z" fill="#363634"/>
<path d="M103.5 23.6851H105.649V24.2574H104.142V25.0141H105.535V25.5801H104.136V26.375H105.675V26.9473H103.5V23.6851Z" fill="#363634"/>
<path d="M108.256 25.2049L108.275 24.6962H108.25L107.741 25.5547H107.627L107.093 24.6962H107.067L107.099 25.154V26.9473H106.501V23.6851H107.137L107.69 24.5881H107.703L108.25 23.6851H108.886V26.9473H108.25L108.256 25.2049Z" fill="#363634"/>
<path d="M111.309 26.2224H110.355L110.132 26.9473H109.503L110.539 23.6851H111.169L112.199 26.9473H111.538L111.309 26.2224ZM110.501 25.7137H111.188L110.864 24.6199H110.819L110.501 25.7137Z" fill="#363634"/>
<path d="M117.172 27.5769H116.6V26.9473H114.584V23.6851H115.22V26.3814H116.129V23.6851H116.778V26.3814H117.172V27.5769Z" fill="#363634"/>
<path d="M119.652 25.224L119.69 24.7979H119.665L119.48 25.2367L118.577 26.9473H117.999V23.6851H118.622V25.3766L118.577 25.8154H118.603L118.8 25.3639L119.703 23.6851H120.275V26.9473H119.652V25.224Z" fill="#363634"/>
<path d="M122.151 23.6851H122.755V24.0412C122.883 24.0412 123.01 24.073 123.137 24.1111C123.264 24.1556 123.379 24.2256 123.474 24.3273C123.576 24.4227 123.652 24.5563 123.709 24.728C123.773 24.8933 123.798 25.1095 123.798 25.3703C123.798 25.6246 123.773 25.8409 123.716 26.0062C123.658 26.1842 123.588 26.3241 123.493 26.4322C123.398 26.5404 123.283 26.623 123.156 26.6675C123.029 26.712 122.902 26.7438 122.755 26.7502V27.1572H122.151V26.7502C122.012 26.7438 121.875 26.7159 121.744 26.6675C121.616 26.6178 121.503 26.5369 121.414 26.4322C121.325 26.3241 121.248 26.1779 121.191 26.0125C121.134 25.8408 121.108 25.631 121.108 25.3766C121.108 25.1222 121.134 24.9124 121.197 24.7471C121.255 24.5817 121.331 24.4418 121.433 24.3401C121.528 24.2447 121.643 24.1684 121.763 24.1175C121.891 24.073 122.018 24.0475 122.145 24.0412L122.151 23.6851ZM122.183 24.5563C122.111 24.5588 122.04 24.5792 121.978 24.6159C121.916 24.6526 121.864 24.7042 121.827 24.7661C121.717 25.1001 121.69 25.4562 121.751 25.8027C121.77 25.9108 121.808 25.9935 121.846 26.0571C121.891 26.1206 121.935 26.1715 121.992 26.197C122.049 26.2224 122.113 26.2415 122.183 26.2478V24.5563ZM122.724 26.2478C122.787 26.2415 122.851 26.2224 122.914 26.197C122.974 26.1666 123.025 26.1204 123.061 26.0634C123.105 25.9998 123.137 25.9108 123.156 25.8027C123.215 25.4561 123.189 25.1004 123.08 24.7661C123.043 24.7042 122.991 24.6526 122.928 24.6159C122.866 24.5792 122.796 24.5588 122.724 24.5563V26.2478Z" fill="#363634"/>
<path d="M124.841 23.7613C125.299 23.6767 125.766 23.6638 126.228 23.7231C126.393 23.7486 126.539 23.8058 126.673 23.8821C126.8 23.9648 126.908 24.0729 126.991 24.2192C127.073 24.3654 127.118 24.5562 127.118 24.7851C127.118 24.9886 127.08 25.1603 127.01 25.3066C126.933 25.4465 126.838 25.561 126.724 25.6563C126.603 25.7517 126.469 25.8217 126.317 25.8662C126.164 25.9044 126.011 25.9298 125.846 25.9298H125.77C125.672 25.931 125.574 25.9246 125.477 25.9107V27.0554H124.841V23.7613ZM125.795 24.2446C125.689 24.2456 125.582 24.2541 125.477 24.27V25.3448L125.534 25.3511L125.611 25.3575H125.757C125.84 25.3575 125.922 25.3575 126.005 25.3384C126.084 25.3237 126.16 25.2935 126.228 25.2494C126.291 25.2112 126.342 25.1476 126.38 25.0713C126.418 24.995 126.444 24.8996 126.444 24.7724C126.444 24.6707 126.425 24.5816 126.38 24.518C126.347 24.4527 126.299 24.396 126.24 24.3527C126.177 24.3114 126.105 24.2832 126.03 24.27C125.951 24.2534 125.87 24.2449 125.789 24.2446H125.795Z" fill="#363634"/>
<path d="M127.945 25.4211C127.945 25.1477 127.97 24.906 128.021 24.6898C128.072 24.4736 128.148 24.2892 128.25 24.1429C128.352 23.9967 128.485 23.8822 128.638 23.8059C128.79 23.7232 128.975 23.6787 129.185 23.6787C129.414 23.6787 129.604 23.7296 129.757 23.8122C129.916 23.9013 130.043 24.0157 130.138 24.1684C130.24 24.321 130.317 24.5054 130.361 24.7216C130.406 24.9315 130.425 25.1668 130.425 25.4211C130.425 25.9617 130.329 26.3877 130.119 26.693C129.916 27.0046 129.604 27.1572 129.185 27.1572C128.962 27.1572 128.771 27.1127 128.612 27.03C128.455 26.9462 128.321 26.8236 128.224 26.6739C128.118 26.5047 128.045 26.317 128.008 26.1207C127.964 25.9108 127.945 25.6755 127.945 25.4211ZM128.619 25.4211C128.619 25.5801 128.625 25.7391 128.644 25.8726C128.657 26.0125 128.682 26.1334 128.72 26.2415C128.759 26.3432 128.816 26.4259 128.892 26.4831C128.962 26.5467 129.064 26.5721 129.185 26.5721C129.293 26.5721 129.388 26.5531 129.458 26.5086C129.528 26.4577 129.585 26.3877 129.63 26.2923C129.674 26.197 129.706 26.0761 129.725 25.9362C129.771 25.4925 129.749 25.0445 129.662 24.6072C129.628 24.5106 129.568 24.425 129.49 24.3591C129.403 24.2917 129.295 24.2578 129.185 24.2637C128.968 24.2637 128.816 24.3655 128.739 24.5563C128.663 24.7471 128.619 25.0396 128.619 25.4211Z" fill="#363634"/>
<path d="M133.509 24.7342C133.468 24.8978 133.369 25.0405 133.229 25.1348C133.153 25.1857 133.064 25.2239 132.962 25.2493V25.2811C133.051 25.2938 133.14 25.3193 133.223 25.3574C133.307 25.3949 133.382 25.4492 133.445 25.517C133.507 25.5848 133.555 25.6647 133.585 25.7517C133.623 25.8471 133.642 25.9552 133.642 26.0824C133.645 26.2287 133.61 26.3734 133.541 26.5025C133.472 26.6316 133.371 26.7409 133.248 26.82C133.134 26.9027 132.994 26.9599 132.847 26.9981C132.695 27.0299 132.536 27.049 132.377 27.049H132.18C131.905 27.0485 131.631 27.0273 131.359 26.9854V23.7549C131.83 23.6771 132.31 23.6642 132.784 23.7167C132.924 23.7422 133.051 23.7803 133.165 23.8439C133.28 23.9075 133.369 23.9838 133.439 24.0919C133.502 24.1937 133.541 24.3336 133.541 24.4926C133.541 24.5752 133.528 24.6515 133.509 24.7342ZM132.173 25.103C132.271 25.1011 132.369 25.0947 132.466 25.084C132.587 25.0522 132.688 24.9949 132.777 24.9186C132.86 24.8487 132.905 24.7469 132.905 24.6261C132.907 24.5597 132.891 24.494 132.86 24.4353C132.829 24.3828 132.785 24.339 132.733 24.3081C132.678 24.2768 132.618 24.2552 132.555 24.2445C132.358 24.2334 132.16 24.2334 131.963 24.2445V25.103H132.173ZM132.599 26.4894C132.668 26.4715 132.733 26.4413 132.79 26.4003C132.85 26.3623 132.899 26.3095 132.932 26.2472C132.965 26.1848 132.982 26.1149 132.981 26.0442C132.985 25.9591 132.963 25.8748 132.917 25.8026C132.877 25.7451 132.822 25.699 132.758 25.669C132.695 25.6372 132.618 25.6118 132.542 25.6054C132.462 25.5962 132.381 25.592 132.301 25.5927H131.963V26.483C131.976 26.4957 132.002 26.4957 132.033 26.5021H132.148L132.262 26.5148H132.377C132.453 26.5148 132.523 26.5021 132.599 26.4894Z" fill="#363634"/>
<path d="M134.571 25.4211C134.571 25.1477 134.596 24.906 134.647 24.6898C134.698 24.4736 134.774 24.2892 134.876 24.1429C134.984 23.9967 135.111 23.8822 135.264 23.8059C135.423 23.7232 135.607 23.6787 135.817 23.6787C136.04 23.6787 136.231 23.7296 136.39 23.8122C136.549 23.9013 136.676 24.0157 136.771 24.1684C136.873 24.321 136.943 24.5054 136.987 24.7216C137.038 24.9315 137.057 25.1668 137.057 25.4211C137.057 25.9617 136.956 26.3877 136.752 26.693C136.542 27.0046 136.231 27.1572 135.817 27.1572C135.588 27.1572 135.398 27.1127 135.239 27.03C135.083 26.9456 134.952 26.823 134.857 26.6739C134.751 26.5047 134.677 26.317 134.641 26.1207C134.596 25.8902 134.575 25.6558 134.577 25.4211H134.571ZM135.251 25.4211C135.251 25.5801 135.258 25.7391 135.27 25.8726C135.283 26.0125 135.315 26.1334 135.353 26.2415C135.391 26.3432 135.448 26.4259 135.518 26.4831C135.595 26.5467 135.69 26.5721 135.817 26.5721C135.925 26.5721 136.014 26.5531 136.091 26.5086C136.154 26.4577 136.218 26.3877 136.262 26.2923C136.307 26.197 136.339 26.0761 136.351 25.9362C136.397 25.4925 136.376 25.0444 136.288 24.6072C136.254 24.5108 136.194 24.4252 136.116 24.3591C136.031 24.2931 135.925 24.2594 135.817 24.2637C135.595 24.2637 135.448 24.3655 135.372 24.5563C135.289 24.7471 135.245 25.0396 135.245 25.4211" fill="#363634"/>
<path d="M139.646 25.2877L139.684 24.8552H139.658L139.468 25.3004L138.571 27.0492H137.992V23.7169H138.615V25.4466L138.571 25.8918H138.596L138.787 25.4339L139.696 23.7169H140.269V27.0492H139.646V25.2877ZM138.857 22.8394C138.87 22.9411 138.902 23.0174 138.965 23.0619C139.029 23.1064 139.099 23.1255 139.194 23.1255C139.398 23.1255 139.512 23.0365 139.531 22.8457L140.04 22.9284C140.031 23.016 140.003 23.1006 139.958 23.1763C139.913 23.2521 139.852 23.3172 139.779 23.3672C139.633 23.4562 139.442 23.5007 139.188 23.5007C139.075 23.5022 138.962 23.4937 138.851 23.4753C138.743 23.4562 138.66 23.4244 138.577 23.3799C138.496 23.336 138.427 23.2721 138.377 23.1942C138.327 23.1164 138.297 23.0271 138.291 22.9347L138.857 22.8394Z" fill="#363634"/>
<path d="M92.6126 31.9388L92.638 31.4301H92.6126L92.0975 32.2886H91.9894L91.4489 31.4364H91.4298L91.4552 31.8943V33.6812H90.8574V30.4189H91.4933L92.0466 31.322H92.0657L92.6126 30.4189H93.2421V33.6812H92.6126V31.9388Z" fill="#363634"/>
<path d="M95.8748 32.9563H94.921L94.6984 33.6812H94.0688L95.1054 30.4189H95.735L96.7652 33.6812H96.1038L95.8748 32.9563ZM95.0672 32.4475H95.7541L95.4234 31.3538H95.3852L95.0672 32.4475Z" fill="#363634"/>
<path d="M97.6938 30.3943C98.1548 30.3034 98.6277 30.2905 99.0929 30.3561C99.2519 30.3816 99.3981 30.4388 99.5317 30.5151C99.6589 30.5978 99.767 30.7059 99.8496 30.8522C99.9323 30.9984 99.9768 31.1828 99.9768 31.4181C99.9768 31.6153 99.9387 31.7933 99.8687 31.9332C99.8016 32.0721 99.7037 32.1939 99.5825 32.2893C99.4617 32.3847 99.3281 32.4547 99.1755 32.4928C99.0229 32.5374 98.8703 32.5564 98.7049 32.5564H98.635C98.5608 32.5599 98.4864 32.5577 98.4124 32.5501L98.3361 32.5374V33.682H97.7002L97.6938 30.3943ZM98.6477 30.8712C98.5434 30.8721 98.4392 30.8806 98.3361 30.8967V31.9777H98.3933C98.4461 31.9847 98.4992 31.9889 98.5523 31.9905H98.616C98.6987 31.9905 98.7813 31.9905 98.8639 31.9714C98.9434 31.957 99.0191 31.9268 99.0866 31.8824C99.1524 31.8377 99.2051 31.7762 99.2392 31.7043C99.2837 31.628 99.3027 31.5262 99.3027 31.4054C99.3027 31.3037 99.2837 31.2146 99.2392 31.1511C99.206 31.0858 99.1581 31.0292 99.0992 30.9857C99.0359 30.9423 98.9646 30.912 98.8894 30.8967C98.8099 30.8801 98.7289 30.8716 98.6477 30.8712Z" fill="#363634"/>
<path d="M101.885 32.3204H101.554V33.6812H100.905V30.4189H101.554V31.7544H101.891L102.641 30.4189H103.379L102.451 31.996L103.5 33.6812H102.699L101.885 32.3204Z" fill="#363634"/>
<path d="M105.878 31.9579L105.916 31.5318H105.891L105.7 31.977L104.803 33.6812H104.225V30.4189H104.848V32.1105L104.803 32.5493H104.829L105.02 32.0978L105.929 30.4189H106.501V33.6812H105.878V31.9579Z" fill="#363634"/>
<path d="M107.64 30.3942C108.101 30.3034 108.573 30.2905 109.039 30.3561C109.198 30.3815 109.344 30.4387 109.477 30.515C109.605 30.5977 109.713 30.7058 109.795 30.8521C109.878 30.9983 109.923 31.1828 109.923 31.418C109.923 31.6152 109.884 31.7932 109.815 31.9331C109.747 32.072 109.649 32.1938 109.528 32.2893C109.407 32.3846 109.274 32.4546 109.121 32.4928C108.969 32.5373 108.816 32.5563 108.651 32.5563H108.574C108.477 32.5595 108.379 32.5531 108.282 32.5373V33.6819H107.646L107.64 30.3942ZM108.594 30.8712C108.489 30.8721 108.385 30.8806 108.282 30.8966V31.9777H108.339C108.392 31.9846 108.445 31.9889 108.498 31.9904H108.562C108.644 31.9904 108.727 31.9904 108.81 31.9713C108.889 31.9569 108.965 31.9267 109.032 31.8823C109.098 31.8376 109.151 31.7761 109.185 31.7042C109.229 31.6279 109.249 31.5262 109.249 31.4053C109.249 31.3036 109.229 31.2146 109.185 31.151C109.15 31.0849 109.1 31.0282 109.039 30.9856C108.977 30.9428 108.908 30.9125 108.835 30.8966C108.756 30.88 108.675 30.8715 108.594 30.8712Z" fill="#363634"/>
<path d="M110.851 32.0538C110.851 31.7804 110.877 31.5387 110.927 31.3225C110.978 31.1063 111.055 30.9219 111.156 30.7756C111.26 30.6234 111.401 30.5005 111.566 30.4191C111.731 30.3377 111.914 30.3006 112.097 30.3114C112.32 30.3114 112.511 30.3559 112.67 30.4386C112.829 30.5276 112.956 30.6484 113.051 30.801C113.153 30.9537 113.223 31.1381 113.268 31.3479C113.312 31.5642 113.337 31.7931 113.337 32.0475C113.337 32.5944 113.236 33.0204 113.032 33.3257C112.822 33.6309 112.511 33.7899 112.097 33.7899C111.908 33.8021 111.719 33.763 111.55 33.6768C111.381 33.5907 111.239 33.4606 111.137 33.3002C111.03 33.1334 110.954 32.9479 110.915 32.7533C110.876 32.5371 110.851 32.3082 110.851 32.0538ZM111.531 32.0538C111.531 32.2128 111.531 32.3654 111.551 32.499C111.563 32.6452 111.589 32.766 111.633 32.8678C111.671 32.9759 111.729 33.0586 111.799 33.1158C111.875 33.1794 111.97 33.2048 112.097 33.2048C112.206 33.2048 112.295 33.1794 112.371 33.1413C112.434 33.0904 112.498 33.0141 112.543 32.925C112.587 32.8296 112.619 32.7088 112.632 32.5626C112.675 32.1209 112.654 31.6753 112.568 31.2398C112.534 31.1413 112.475 31.0535 112.396 30.9855C112.31 30.9217 112.204 30.8902 112.097 30.8964C111.875 30.8964 111.729 30.9918 111.652 31.189C111.57 31.3797 111.525 31.6723 111.525 32.0538" fill="#363634"/>
<path d="M116.415 31.3672C116.375 31.5307 116.275 31.6735 116.135 31.7678C116.055 31.8227 115.964 31.8616 115.868 31.8823V31.9077C115.964 31.9268 116.046 31.9522 116.135 31.9903C116.219 32.0281 116.295 32.0826 116.357 32.1503C116.419 32.2181 116.467 32.2978 116.498 32.3846C116.53 32.4737 116.549 32.5881 116.549 32.7153C116.552 32.8611 116.518 33.0053 116.45 33.1344C116.382 33.2634 116.283 33.3731 116.161 33.453C116.034 33.5293 115.907 33.5865 115.754 33.6247C115.602 33.6649 115.446 33.6862 115.29 33.6883H115.086C114.813 33.6849 114.541 33.6594 114.272 33.612V30.3878C114.596 30.3379 114.924 30.3124 115.251 30.3115C115.398 30.3115 115.55 30.3242 115.697 30.3497C115.837 30.3751 115.964 30.4133 116.078 30.4769C116.186 30.5341 116.275 30.6168 116.345 30.7249C116.409 30.8266 116.447 30.9602 116.447 31.1255C116.447 31.2082 116.434 31.2845 116.415 31.3672ZM115.08 31.736C115.178 31.7345 115.275 31.7281 115.372 31.7169C115.5 31.6788 115.595 31.6279 115.684 31.5516C115.773 31.4753 115.811 31.3799 115.811 31.259C115.814 31.1905 115.799 31.1224 115.767 31.0619C115.736 31.0093 115.692 30.9655 115.639 30.9347C115.586 30.9033 115.528 30.8818 115.468 30.8711C115.271 30.8581 115.073 30.8581 114.876 30.8711V31.736H115.08ZM115.506 33.1159C115.574 33.0997 115.638 33.0718 115.697 33.0333C115.755 32.9944 115.803 32.9414 115.835 32.8791C115.867 32.8168 115.883 32.7473 115.881 32.6772C115.885 32.592 115.863 32.5077 115.817 32.4355C115.778 32.379 115.726 32.3331 115.665 32.302C115.601 32.2702 115.531 32.2447 115.449 32.2384C115.368 32.2295 115.288 32.2252 115.207 32.2257H114.87V33.1159L114.946 33.1287L115.054 33.1414C115.131 33.1404 115.207 33.1404 115.283 33.1414C115.36 33.1414 115.436 33.1414 115.506 33.1159Z" fill="#363634"/>
<path d="M118.565 32.3204H118.228V33.6812H117.585V30.4189H118.228V31.7544H118.565L119.322 30.4189H120.059L119.124 31.996L120.174 33.6812H119.379L118.565 32.3204Z" fill="#363634"/>
<path d="M122.552 31.9579L122.59 31.5318H122.565L122.38 31.977L121.477 33.6812H120.905V30.4189H121.522V32.1105L121.477 32.5493H121.503L121.7 32.0978L122.603 30.4189H123.175V33.6812H122.552V31.9579Z" fill="#363634"/>
<path d="M36.5243 16.1935C36.9061 16.1985 37.2703 16.3546 37.5372 16.6275C37.8042 16.9004 37.9522 17.268 37.9488 17.6498V21.2618H40.9376V17.6498C40.9426 17.0652 40.8325 16.4853 40.6134 15.9433C40.3944 15.4013 40.0707 14.9078 39.6609 14.4909C39.2511 14.074 38.7631 13.7419 38.2249 13.5136C37.6868 13.2852 37.1089 13.1651 36.5243 13.1602H32.9568V16.1935H36.5243Z" fill="#363634"/>
<path d="M37.9488 32.8933C37.9488 33.6946 37.3129 34.3432 36.5243 34.3432H32.9568V37.3639H36.518C37.6953 37.3538 38.8206 36.8777 39.6477 36.0399C40.4748 35.202 40.9363 34.0706 40.9312 32.8933V29.2622H37.9488V32.8933Z" fill="#363634"/>
<path d="M20.0857 17.6498C20.0857 16.8485 20.7279 16.1872 21.5165 16.1872H25.0776V13.1602H21.5165C20.337 13.1719 19.2104 13.6513 18.3841 14.4931C17.5578 15.3349 17.0994 16.4702 17.1095 17.6498V21.2618H20.0857V17.6498Z" fill="#363634"/>
<path d="M21.5164 34.3432C21.1346 34.3399 20.7697 34.1854 20.5016 33.9137C20.2334 33.642 20.0838 33.2751 20.0855 32.8933V29.2622H17.1094V32.8933C17.1043 34.0695 17.5649 35.2 18.3907 36.0376C19.2164 36.8753 20.3402 37.3521 21.5164 37.3639H25.0775V34.3432H21.5164Z" fill="#363634"/>
<path d="M27.3036 32.5245L20.9443 26.0571L23.0429 23.9141L27.3036 28.2383L34.9982 20.4165L37.0967 22.5596L27.3036 32.5245Z" fill="#363634"/>
<path d="M53.9869 29.5038C54.3501 29.9726 54.5613 30.5412 54.592 31.1335C54.6227 31.7257 54.4715 32.3131 54.1586 32.8169C53.8289 33.3275 53.3585 33.7316 52.8041 33.9807C52.2 34.2732 51.4496 34.4195 50.5529 34.4195C49.8968 34.4195 49.2432 34.3384 48.607 34.1778C48.0181 34.0343 47.4557 33.7982 46.9409 33.4783L47.8948 31.4624C48.6589 31.9689 49.5535 32.2428 50.4702 32.251C50.8475 32.2715 51.2228 32.1832 51.5514 31.9966C51.8121 31.8185 51.9456 31.5769 51.9456 31.2589C51.9456 30.6484 51.475 30.3368 50.5275 30.3368H49.4273V28.6389L51.0808 26.8075H47.4179V24.7344H54.1395V26.4196L52.2127 28.5308C52.9821 28.6962 53.5736 29.0205 53.9933 29.5038" fill="#363634"/>
<path d="M64.9627 24.7344V34.2096H62.3173V30.5149H58.7053V34.2032H56.0535V24.7344H58.7053V28.2955H62.3173V24.7344H64.9627Z" fill="#363634"/>
<path d="M73.4079 25.0587C74.075 25.4108 74.6202 25.956 74.9722 26.6231C75.3474 27.3035 75.5318 28.1239 75.5318 29.0841V34.2096H72.88V32.1111H69.2298V34.2096H66.6226V29.0777C66.6226 28.1239 66.807 27.2972 67.1758 26.6167C67.5282 25.9499 68.0733 25.4047 68.7402 25.0524C69.4622 24.6847 70.2639 24.5012 71.074 24.5182C71.9643 24.5182 72.7338 24.6962 73.4079 25.0524V25.0587ZM72.88 30.0316V28.8488C72.88 28.1557 72.7147 27.6342 72.3841 27.2781C72.2139 27.1009 72.0079 26.9622 71.7797 26.8712C71.5516 26.7801 71.3066 26.7389 71.0613 26.7503C70.5017 26.7503 70.0565 26.9283 69.7259 27.2781C69.3952 27.6342 69.2298 28.1557 69.2298 28.8488V30.0316H72.88Z" fill="#363634"/>
<path d="M79.8178 29.7136V34.2096H77.1851V24.7344H79.8114V29.224H79.875L83.1564 24.7344H86.3042L82.7113 29.313L86.3996 34.2096H82.9847L79.8178 29.7136Z" fill="#363634"/>
<path d="M51.7102 16.9443V21.7901H50.1013V20.2384C49.7833 20.3338 49.4845 20.3847 49.2237 20.3847C48.5115 20.3847 47.9709 20.2193 47.6021 19.8759C47.2269 19.5452 47.0425 19.0492 47.0425 18.4069V16.9443H48.645V18.2289C48.645 18.5214 48.7086 18.7376 48.8358 18.8775C48.9694 19.0238 49.1665 19.0937 49.4272 19.0937C49.7006 19.0937 49.9232 19.0556 50.1013 18.9793V16.9443H51.7102Z" fill="#363634"/>
<path d="M56.6768 20.5564V21.7901H52.7405V16.9443H56.5878V18.178H54.3112V18.7504H56.3144V19.9204H54.3112V20.5564H56.6768Z" fill="#363634"/>
<path d="M58.7181 21.4661C58.3134 21.261 57.9751 20.9455 57.7421 20.5561C57.5092 20.1668 57.3912 19.7194 57.4018 19.2658C57.3892 18.811 57.5063 18.362 57.7394 17.9713C57.9725 17.5805 58.3119 17.2642 58.7181 17.0592C59.1251 16.843 59.5894 16.7412 60.0981 16.7412C60.5687 16.7412 60.9884 16.8175 61.3572 16.9829C61.7261 17.1482 62.0313 17.3898 62.273 17.7014L61.2428 18.6235C60.9439 18.242 60.5878 18.0512 60.1808 18.0512C59.8437 18.0512 59.5639 18.1657 59.354 18.3819C59.1505 18.6045 59.0488 18.8906 59.0488 19.2658C59.0488 19.6283 59.1506 19.9272 59.3604 20.1434C59.5639 20.3596 59.8437 20.4677 60.1871 20.4677C60.5878 20.4677 60.9439 20.2769 61.2428 19.9081L62.273 20.8238C62.0313 21.1354 61.7261 21.3771 61.3572 21.5424C60.9884 21.7078 60.5687 21.7904 60.0981 21.7904C59.5894 21.7904 59.1251 21.6823 58.7181 21.4725" fill="#363634"/>
<path d="M67.1379 18.2162H65.7515V21.7901H64.1808V18.2162H62.7881V16.9443H67.1379V18.2162Z" fill="#363634"/>
<path d="M72.6322 16.9443V21.7901H70.9979V20.0095H69.4908V21.7901H67.8628V16.9443H69.4908V18.6613H70.9979V16.9443H72.6322Z" fill="#363634"/>
<path d="M78.2538 20.0349C78.2538 20.6009 78.063 21.0333 77.6942 21.3385C77.319 21.6374 76.8102 21.7837 76.1679 21.7837H73.7705V16.9507H75.3667V18.4324H76.3714C76.9692 18.4324 77.4334 18.5659 77.7641 18.8394C78.0884 19.1065 78.2538 19.5071 78.2538 20.0349ZM76.6194 20.0604C76.6194 19.736 76.4286 19.577 76.0471 19.577H75.3667V20.6454H76.0534C76.2188 20.6454 76.3523 20.5945 76.4604 20.4928C76.5151 20.4354 76.5575 20.3674 76.5849 20.2931C76.6122 20.2187 76.624 20.1395 76.6194 20.0604ZM78.6925 16.9443H80.2951V21.7901H78.6925V16.9443Z" fill="#363634"/>
<path d="M81.3315 16.9446H82.9213V19.4628L84.5747 16.9446H86.101V21.7903H84.5048V19.272L82.8578 21.7903H81.3315V16.9446ZM82.5652 16.3722C82.3299 16.1687 82.2155 15.8699 82.2155 15.4756H83.2902C83.2902 15.6282 83.322 15.7427 83.3856 15.8126C83.4492 15.8762 83.5509 15.9207 83.7035 15.9207C83.8625 15.9207 83.977 15.8826 84.0406 15.8126C84.1042 15.7491 84.1423 15.6282 84.1423 15.4756H85.217C85.217 15.8699 85.0962 16.1688 84.8609 16.3659C84.6257 16.563 84.2377 16.6648 83.7099 16.6648C83.1757 16.6648 82.7941 16.563 82.5652 16.3659V16.3722Z" fill="#363634"/>
</svg>
